<mxfile host="drawio.corp.amazon.com" modified="2024-06-27T12:25:39.285Z" agent="Mozilla/5.0 (Macintosh; Intel Mac OS X 10.15; rv:126.0) Gecko/20100101 Firefox/126.0" etag="EvFanQD4Q4vSFhWsgvx3" version="21.7.4" type="device" pages="2">
  <diagram name="Page-1" id="PO_4fUVkO00iBB0tuS1X">
    <mxGraphModel dx="4094" dy="935" grid="1" gridSize="10" guides="1" tooltips="1" connect="1" arrows="1" fold="1" page="1" pageScale="1" pageWidth="2336" pageHeight="1654" math="0" shadow="0">
      <root>
        <mxCell id="0" />
        <mxCell id="1" parent="0" />
        <mxCell id="MAMWOHykKVZTQfS5sw33-102" value="EVENTS" style="edgeStyle=orthogonalEdgeStyle;rounded=0;orthogonalLoop=1;jettySize=auto;html=1;" edge="1" parent="1" source="MAMWOHykKVZTQfS5sw33-1" target="MAMWOHykKVZTQfS5sw33-7">
          <mxGeometry relative="1" as="geometry" />
        </mxCell>
        <mxCell id="MAMWOHykKVZTQfS5sw33-1" value="&amp;lt;&amp;lt;external&amp;gt;&amp;gt;&lt;br&gt;Satellite Imagery" style="shape=module;align=left;spacingLeft=20;align=center;verticalAlign=middle;whiteSpace=wrap;html=1;fontStyle=1" vertex="1" parent="1">
          <mxGeometry x="120" y="700" width="190" height="80" as="geometry" />
        </mxCell>
        <mxCell id="MAMWOHykKVZTQfS5sw33-100" value="EVENTS" style="edgeStyle=orthogonalEdgeStyle;rounded=0;orthogonalLoop=1;jettySize=auto;html=1;entryX=0.5;entryY=0;entryDx=0;entryDy=0;" edge="1" parent="1" source="MAMWOHykKVZTQfS5sw33-2" target="MAMWOHykKVZTQfS5sw33-13">
          <mxGeometry relative="1" as="geometry">
            <Array as="points">
              <mxPoint x="1150" y="580" />
              <mxPoint x="1150" y="130" />
              <mxPoint x="565" y="130" />
            </Array>
          </mxGeometry>
        </mxCell>
        <mxCell id="MAMWOHykKVZTQfS5sw33-107" value="EVENTS" style="edgeStyle=orthogonalEdgeStyle;rounded=0;orthogonalLoop=1;jettySize=auto;html=1;entryX=0.995;entryY=0.4;entryDx=0;entryDy=0;entryPerimeter=0;" edge="1" parent="1" source="MAMWOHykKVZTQfS5sw33-2" target="MAMWOHykKVZTQfS5sw33-26">
          <mxGeometry relative="1" as="geometry">
            <Array as="points">
              <mxPoint x="430" y="572" />
              <mxPoint x="430" y="572" />
            </Array>
          </mxGeometry>
        </mxCell>
        <mxCell id="MAMWOHykKVZTQfS5sw33-2" value="Executor" style="shape=module;align=left;spacingLeft=20;align=center;verticalAlign=middle;whiteSpace=wrap;html=1;fontStyle=1" vertex="1" parent="1">
          <mxGeometry x="470" y="540" width="190" height="80" as="geometry" />
        </mxCell>
        <mxCell id="MAMWOHykKVZTQfS5sw33-99" value="EVENTS" style="edgeStyle=orthogonalEdgeStyle;rounded=0;orthogonalLoop=1;jettySize=auto;html=1;entryX=0.5;entryY=1;entryDx=0;entryDy=0;" edge="1" parent="1" source="MAMWOHykKVZTQfS5sw33-7" target="MAMWOHykKVZTQfS5sw33-2">
          <mxGeometry relative="1" as="geometry" />
        </mxCell>
        <mxCell id="MAMWOHykKVZTQfS5sw33-7" value="Scheduler" style="shape=module;align=left;spacingLeft=20;align=center;verticalAlign=middle;whiteSpace=wrap;html=1;fontStyle=1" vertex="1" parent="1">
          <mxGeometry x="470" y="700" width="190" height="80" as="geometry" />
        </mxCell>
        <mxCell id="MAMWOHykKVZTQfS5sw33-105" value="EVENT" style="edgeStyle=orthogonalEdgeStyle;rounded=0;orthogonalLoop=1;jettySize=auto;html=1;entryX=1;entryY=0.5;entryDx=0;entryDy=0;jumpStyle=arc;" edge="1" parent="1" source="MAMWOHykKVZTQfS5sw33-8" target="MAMWOHykKVZTQfS5sw33-7">
          <mxGeometry x="-0.2857" relative="1" as="geometry">
            <Array as="points">
              <mxPoint x="710" y="420" />
              <mxPoint x="710" y="740" />
            </Array>
            <mxPoint as="offset" />
          </mxGeometry>
        </mxCell>
        <mxCell id="MAMWOHykKVZTQfS5sw33-8" value="Regions" style="shape=module;align=left;spacingLeft=20;align=center;verticalAlign=middle;whiteSpace=wrap;html=1;fontStyle=1" vertex="1" parent="1">
          <mxGeometry x="470" y="380" width="190" height="80" as="geometry" />
        </mxCell>
        <mxCell id="MAMWOHykKVZTQfS5sw33-91" value="REST" style="edgeStyle=orthogonalEdgeStyle;rounded=0;orthogonalLoop=1;jettySize=auto;html=1;" edge="1" parent="1" source="MAMWOHykKVZTQfS5sw33-9" target="MAMWOHykKVZTQfS5sw33-13">
          <mxGeometry relative="1" as="geometry">
            <Array as="points">
              <mxPoint x="215" y="240" />
            </Array>
          </mxGeometry>
        </mxCell>
        <mxCell id="MAMWOHykKVZTQfS5sw33-97" value="REST" style="edgeStyle=orthogonalEdgeStyle;rounded=0;orthogonalLoop=1;jettySize=auto;html=1;" edge="1" parent="1" source="MAMWOHykKVZTQfS5sw33-9">
          <mxGeometry relative="1" as="geometry">
            <mxPoint x="470" y="420" as="targetPoint" />
          </mxGeometry>
        </mxCell>
        <mxCell id="MAMWOHykKVZTQfS5sw33-9" value="UI" style="shape=module;align=left;spacingLeft=20;align=center;verticalAlign=middle;whiteSpace=wrap;html=1;fontStyle=1" vertex="1" parent="1">
          <mxGeometry x="120" y="380" width="190" height="80" as="geometry" />
        </mxCell>
        <mxCell id="MAMWOHykKVZTQfS5sw33-95" value="EVENTS" style="edgeStyle=orthogonalEdgeStyle;rounded=0;orthogonalLoop=1;jettySize=auto;html=1;entryX=0.5;entryY=0;entryDx=0;entryDy=0;" edge="1" parent="1" source="MAMWOHykKVZTQfS5sw33-13" target="MAMWOHykKVZTQfS5sw33-15">
          <mxGeometry relative="1" as="geometry" />
        </mxCell>
        <mxCell id="MAMWOHykKVZTQfS5sw33-13" value="Results" style="shape=module;align=left;spacingLeft=20;align=center;verticalAlign=middle;whiteSpace=wrap;html=1;fontStyle=1" vertex="1" parent="1">
          <mxGeometry x="470" y="200" width="190" height="80" as="geometry" />
        </mxCell>
        <mxCell id="MAMWOHykKVZTQfS5sw33-96" value="REST" style="edgeStyle=orthogonalEdgeStyle;rounded=0;orthogonalLoop=1;jettySize=auto;html=1;" edge="1" parent="1" source="MAMWOHykKVZTQfS5sw33-15" target="MAMWOHykKVZTQfS5sw33-8">
          <mxGeometry relative="1" as="geometry">
            <Array as="points">
              <mxPoint x="770" y="400" />
              <mxPoint x="770" y="400" />
            </Array>
          </mxGeometry>
        </mxCell>
        <mxCell id="MAMWOHykKVZTQfS5sw33-15" value="Regions&lt;br&gt;Extension" style="shape=module;align=left;spacingLeft=20;align=center;verticalAlign=middle;whiteSpace=wrap;html=1;fontStyle=1" vertex="1" parent="1">
          <mxGeometry x="810" y="380" width="190" height="80" as="geometry" />
        </mxCell>
        <mxCell id="MAMWOHykKVZTQfS5sw33-16" value="Subscribed Users" style="shape=umlActor;verticalLabelPosition=bottom;verticalAlign=top;html=1;outlineConnect=0;fontStyle=1" vertex="1" parent="1">
          <mxGeometry x="-60" y="550" width="30" height="60" as="geometry" />
        </mxCell>
        <mxCell id="MAMWOHykKVZTQfS5sw33-101" value="HTTP" style="edgeStyle=orthogonalEdgeStyle;rounded=0;orthogonalLoop=1;jettySize=auto;html=1;" edge="1" parent="1" source="MAMWOHykKVZTQfS5sw33-17" target="MAMWOHykKVZTQfS5sw33-9">
          <mxGeometry relative="1" as="geometry" />
        </mxCell>
        <mxCell id="MAMWOHykKVZTQfS5sw33-17" value="User" style="shape=umlActor;verticalLabelPosition=bottom;verticalAlign=top;html=1;outlineConnect=0;fontStyle=1" vertex="1" parent="1">
          <mxGeometry x="-60" y="390" width="30" height="60" as="geometry" />
        </mxCell>
        <mxCell id="MAMWOHykKVZTQfS5sw33-98" value="SMS" style="edgeStyle=orthogonalEdgeStyle;rounded=0;orthogonalLoop=1;jettySize=auto;html=1;" edge="1" parent="1" source="MAMWOHykKVZTQfS5sw33-26" target="MAMWOHykKVZTQfS5sw33-16">
          <mxGeometry relative="1" as="geometry" />
        </mxCell>
        <mxCell id="MAMWOHykKVZTQfS5sw33-26" value="Notifications" style="shape=module;align=left;spacingLeft=20;align=center;verticalAlign=middle;whiteSpace=wrap;html=1;fontStyle=1" vertex="1" parent="1">
          <mxGeometry x="120" y="540" width="190" height="80" as="geometry" />
        </mxCell>
      </root>
    </mxGraphModel>
  </diagram>
  <diagram id="E72TM_hQ0Fv-JbMmmfOM" name="Page-2">
    <mxGraphModel dx="4094" dy="935" grid="1" gridSize="10" guides="1" tooltips="1" connect="1" arrows="1" fold="1" page="1" pageScale="1" pageWidth="2336" pageHeight="1654" math="0" shadow="0">
      <root>
        <mxCell id="0" />
        <mxCell id="1" parent="0" />
        <mxCell id="tQhdZspAslQqHwe9LIU8-1" value="EVENTS" style="edgeStyle=orthogonalEdgeStyle;rounded=0;orthogonalLoop=1;jettySize=auto;html=1;" edge="1" parent="1" source="tQhdZspAslQqHwe9LIU8-2" target="tQhdZspAslQqHwe9LIU8-7">
          <mxGeometry relative="1" as="geometry" />
        </mxCell>
        <mxCell id="tQhdZspAslQqHwe9LIU8-2" value="&amp;lt;&amp;lt;external&amp;gt;&amp;gt;&lt;br&gt;Satellite Imagery" style="shape=module;align=left;spacingLeft=20;align=center;verticalAlign=middle;whiteSpace=wrap;html=1;fontStyle=1" vertex="1" parent="1">
          <mxGeometry x="120" y="700" width="190" height="80" as="geometry" />
        </mxCell>
        <mxCell id="tQhdZspAslQqHwe9LIU8-3" value="EVENTS" style="edgeStyle=orthogonalEdgeStyle;rounded=0;orthogonalLoop=1;jettySize=auto;html=1;entryX=0.5;entryY=0;entryDx=0;entryDy=0;" edge="1" parent="1" source="tQhdZspAslQqHwe9LIU8-5" target="tQhdZspAslQqHwe9LIU8-14">
          <mxGeometry relative="1" as="geometry">
            <Array as="points">
              <mxPoint x="1040" y="580" />
              <mxPoint x="1040" y="130" />
              <mxPoint x="565" y="130" />
            </Array>
          </mxGeometry>
        </mxCell>
        <mxCell id="tQhdZspAslQqHwe9LIU8-4" value="EVENTS" style="edgeStyle=orthogonalEdgeStyle;rounded=0;orthogonalLoop=1;jettySize=auto;html=1;entryX=0.995;entryY=0.4;entryDx=0;entryDy=0;entryPerimeter=0;" edge="1" parent="1" source="tQhdZspAslQqHwe9LIU8-5" target="tQhdZspAslQqHwe9LIU8-21">
          <mxGeometry relative="1" as="geometry">
            <Array as="points">
              <mxPoint x="430" y="572" />
              <mxPoint x="430" y="572" />
            </Array>
          </mxGeometry>
        </mxCell>
        <mxCell id="tQhdZspAslQqHwe9LIU8-5" value="Executor" style="shape=module;align=left;spacingLeft=20;align=center;verticalAlign=middle;whiteSpace=wrap;html=1;fontStyle=1;" vertex="1" parent="1">
          <mxGeometry x="470" y="540" width="190" height="80" as="geometry" />
        </mxCell>
        <mxCell id="tQhdZspAslQqHwe9LIU8-6" value="EVENTS" style="edgeStyle=orthogonalEdgeStyle;rounded=0;orthogonalLoop=1;jettySize=auto;html=1;entryX=0.5;entryY=1;entryDx=0;entryDy=0;" edge="1" parent="1" source="tQhdZspAslQqHwe9LIU8-7" target="tQhdZspAslQqHwe9LIU8-5">
          <mxGeometry relative="1" as="geometry" />
        </mxCell>
        <mxCell id="tQhdZspAslQqHwe9LIU8-7" value="Scheduler" style="shape=module;align=left;spacingLeft=20;align=center;verticalAlign=middle;whiteSpace=wrap;html=1;fontStyle=1;" vertex="1" parent="1">
          <mxGeometry x="470" y="700" width="190" height="80" as="geometry" />
        </mxCell>
        <mxCell id="tQhdZspAslQqHwe9LIU8-8" value="EVENTS" style="edgeStyle=orthogonalEdgeStyle;rounded=0;orthogonalLoop=1;jettySize=auto;html=1;entryX=1;entryY=0.5;entryDx=0;entryDy=0;jumpStyle=arc;" edge="1" parent="1" source="tQhdZspAslQqHwe9LIU8-9" target="tQhdZspAslQqHwe9LIU8-7">
          <mxGeometry x="-0.2857" relative="1" as="geometry">
            <Array as="points">
              <mxPoint x="710" y="420" />
              <mxPoint x="710" y="740" />
            </Array>
            <mxPoint as="offset" />
          </mxGeometry>
        </mxCell>
        <mxCell id="tQhdZspAslQqHwe9LIU8-9" value="Regions" style="shape=module;align=left;spacingLeft=20;align=center;verticalAlign=middle;whiteSpace=wrap;html=1;fontStyle=1;" vertex="1" parent="1">
          <mxGeometry x="470" y="380" width="190" height="80" as="geometry" />
        </mxCell>
        <mxCell id="tQhdZspAslQqHwe9LIU8-10" value="REST" style="edgeStyle=orthogonalEdgeStyle;rounded=0;orthogonalLoop=1;jettySize=auto;html=1;" edge="1" parent="1" source="tQhdZspAslQqHwe9LIU8-12" target="tQhdZspAslQqHwe9LIU8-14">
          <mxGeometry relative="1" as="geometry">
            <Array as="points">
              <mxPoint x="215" y="240" />
            </Array>
          </mxGeometry>
        </mxCell>
        <mxCell id="tQhdZspAslQqHwe9LIU8-11" value="REST" style="edgeStyle=orthogonalEdgeStyle;rounded=0;orthogonalLoop=1;jettySize=auto;html=1;" edge="1" parent="1" source="tQhdZspAslQqHwe9LIU8-12">
          <mxGeometry relative="1" as="geometry">
            <mxPoint x="470" y="420" as="targetPoint" />
          </mxGeometry>
        </mxCell>
        <mxCell id="tQhdZspAslQqHwe9LIU8-22" value="REST" style="edgeStyle=orthogonalEdgeStyle;rounded=0;orthogonalLoop=1;jettySize=auto;html=1;" edge="1" parent="1" source="tQhdZspAslQqHwe9LIU8-12" target="tQhdZspAslQqHwe9LIU8-21">
          <mxGeometry relative="1" as="geometry" />
        </mxCell>
        <mxCell id="tQhdZspAslQqHwe9LIU8-12" value="UI" style="shape=module;align=left;spacingLeft=20;align=center;verticalAlign=middle;whiteSpace=wrap;html=1;fontStyle=1;fillColor=#fff2cc;strokeColor=#d6b656;" vertex="1" parent="1">
          <mxGeometry x="120" y="380" width="190" height="80" as="geometry" />
        </mxCell>
        <mxCell id="tQhdZspAslQqHwe9LIU8-13" value="EVENTS" style="edgeStyle=orthogonalEdgeStyle;rounded=0;orthogonalLoop=1;jettySize=auto;html=1;entryX=0.5;entryY=0;entryDx=0;entryDy=0;" edge="1" parent="1" source="tQhdZspAslQqHwe9LIU8-14" target="tQhdZspAslQqHwe9LIU8-16">
          <mxGeometry relative="1" as="geometry" />
        </mxCell>
        <mxCell id="tQhdZspAslQqHwe9LIU8-14" value="Results" style="shape=module;align=left;spacingLeft=20;align=center;verticalAlign=middle;whiteSpace=wrap;html=1;fontStyle=1;" vertex="1" parent="1">
          <mxGeometry x="470" y="200" width="190" height="80" as="geometry" />
        </mxCell>
        <mxCell id="tQhdZspAslQqHwe9LIU8-15" value="REST" style="edgeStyle=orthogonalEdgeStyle;rounded=0;orthogonalLoop=1;jettySize=auto;html=1;" edge="1" parent="1" source="tQhdZspAslQqHwe9LIU8-16" target="tQhdZspAslQqHwe9LIU8-9">
          <mxGeometry relative="1" as="geometry">
            <Array as="points">
              <mxPoint x="770" y="400" />
              <mxPoint x="770" y="400" />
            </Array>
          </mxGeometry>
        </mxCell>
        <mxCell id="tQhdZspAslQqHwe9LIU8-16" value="Regions&lt;br&gt;Extension" style="shape=module;align=left;spacingLeft=20;align=center;verticalAlign=middle;whiteSpace=wrap;html=1;fontStyle=1;" vertex="1" parent="1">
          <mxGeometry x="810" y="380" width="190" height="80" as="geometry" />
        </mxCell>
        <mxCell id="tQhdZspAslQqHwe9LIU8-17" value="Subscribed Users" style="shape=umlActor;verticalLabelPosition=bottom;verticalAlign=top;html=1;outlineConnect=0;fontStyle=1" vertex="1" parent="1">
          <mxGeometry x="-60" y="550" width="30" height="60" as="geometry" />
        </mxCell>
        <mxCell id="tQhdZspAslQqHwe9LIU8-18" value="HTTP" style="edgeStyle=orthogonalEdgeStyle;rounded=0;orthogonalLoop=1;jettySize=auto;html=1;" edge="1" parent="1" source="tQhdZspAslQqHwe9LIU8-19" target="tQhdZspAslQqHwe9LIU8-12">
          <mxGeometry relative="1" as="geometry" />
        </mxCell>
        <mxCell id="tQhdZspAslQqHwe9LIU8-19" value="User" style="shape=umlActor;verticalLabelPosition=bottom;verticalAlign=top;html=1;outlineConnect=0;fontStyle=1" vertex="1" parent="1">
          <mxGeometry x="-60" y="390" width="30" height="60" as="geometry" />
        </mxCell>
        <mxCell id="tQhdZspAslQqHwe9LIU8-20" value="SMS" style="edgeStyle=orthogonalEdgeStyle;rounded=0;orthogonalLoop=1;jettySize=auto;html=1;" edge="1" parent="1" source="tQhdZspAslQqHwe9LIU8-21" target="tQhdZspAslQqHwe9LIU8-17">
          <mxGeometry relative="1" as="geometry" />
        </mxCell>
        <mxCell id="tQhdZspAslQqHwe9LIU8-21" value="Notifications" style="shape=module;align=left;spacingLeft=20;align=center;verticalAlign=middle;whiteSpace=wrap;html=1;fontStyle=1;" vertex="1" parent="1">
          <mxGeometry x="120" y="540" width="190" height="80" as="geometry" />
        </mxCell>
      </root>
    </mxGraphModel>
  </diagram>
</mxfile>
